<svg viewBox="0 0 1280 900" xmlns="http://www.w3.org/2000/svg" font-family="Segoe UI, Helvetica Neue, Arial, sans-serif">

  <!-- Background -->
  <rect width="1280" height="900" fill="#0f1117"/>

  <!-- ═══════════════════════════════════════════════════════════════════ -->
  <!--  TITLE                                                              -->
  <!-- ═══════════════════════════════════════════════════════════════════ -->
  <text x="640" y="40" text-anchor="middle" font-size="22" font-weight="700" fill="#e8eaf0">Data Vault 2.0 — E-Commerce Raw Vault ERD</text>
  <text x="640" y="62" text-anchor="middle" font-size="12" fill="#8892a4">INSERT-ONLY · Hash Keys · No business rules · Full audit trail</text>

  <!-- ═══════════════════════════════════════════════════════════════════ -->
  <!--  LEGEND                                                             -->
  <!-- ═══════════════════════════════════════════════════════════════════ -->
  <g transform="translate(32,80)">
    <rect width="14" height="14" rx="2" fill="#1a6b3a"/>
    <text x="20" y="12" font-size="11" fill="#c8d0dc">Hub — business key</text>
    <rect x="150" width="14" height="14" rx="2" fill="#5a2d82"/>
    <text x="170" y="12" font-size="11" fill="#c8d0dc">Link — relationship</text>
    <rect x="310" width="14" height="14" rx="2" fill="#7a4a00"/>
    <text x="330" y="12" font-size="11" fill="#c8d0dc">Satellite — history</text>
    <text x="490" y="12" font-size="11" fill="#7a8899">PK = primary key &nbsp; FK = foreign key &nbsp; HK = hash key (BINARY 16)</text>
  </g>

  <!-- ═══════════════════════════════════════════════════════════════════ -->
  <!--  RELATIONSHIP LINES (drawn first so tables appear on top)           -->
  <!-- ═══════════════════════════════════════════════════════════════════ -->

  <!-- HUB_CUSTOMER → LNK_ORDER_ITEM -->
  <line x1="200" y1="220" x2="480" y2="310" stroke="#5a2d82" stroke-width="1.5" stroke-dasharray="4,3"/>
  <!-- HUB_ORDER → LNK_ORDER_ITEM -->
  <line x1="480" y1="185" x2="560" y2="315" stroke="#5a2d82" stroke-width="1.5" stroke-dasharray="4,3"/>
  <!-- HUB_PRODUCT → LNK_ORDER_ITEM -->
  <line x1="760" y1="175" x2="680" y2="315" stroke="#5a2d82" stroke-width="1.5" stroke-dasharray="4,3"/>

  <!-- HUB_ORDER → LNK_ORDER_CHANNEL -->
  <line x1="440" y1="200" x2="385" y2="500" stroke="#5a2d82" stroke-width="1.5" stroke-dasharray="4,3"/>
  <!-- HUB_CHANNEL → LNK_ORDER_CHANNEL -->
  <line x1="120" y1="480" x2="280" y2="530" stroke="#5a2d82" stroke-width="1.5" stroke-dasharray="4,3"/>

  <!-- HUB_ORDER → LNK_ORDER_PAYMENT -->
  <line x1="520" y1="200" x2="740" y2="500" stroke="#5a2d82" stroke-width="1.5" stroke-dasharray="4,3"/>
  <!-- HUB_PAYMENT_METHOD → LNK_ORDER_PAYMENT -->
  <line x1="1040" y1="185" x2="880" y2="510" stroke="#5a2d82" stroke-width="1.5" stroke-dasharray="4,3"/>

  <!-- HUB_PRODUCT → LNK_PRODUCT_SUPPLY -->
  <line x1="880" y1="175" x2="960" y2="490" stroke="#5a2d82" stroke-width="1.5" stroke-dasharray="4,3"/>
  <!-- HUB_SUPPLIER → LNK_PRODUCT_SUPPLY -->
  <line x1="1180" y1="185" x2="1060" y2="490" stroke="#5a2d82" stroke-width="1.5" stroke-dasharray="4,3"/>

  <!-- LNK_ORDER_ITEM → SAT_ORDER_ITEM_DETAILS -->
  <line x1="640" y1="390" x2="540" y2="620" stroke="#7a4a00" stroke-width="1.5" stroke-dasharray="4,3"/>
  <!-- LNK_ORDER_ITEM → SAT_ORDER_STATUS -->
  <line x1="640" y1="390" x2="710" y2="620" stroke="#7a4a00" stroke-width="1.5" stroke-dasharray="4,3"/>

  <!-- HUB_CUSTOMER → SAT_CUSTOMER_PROFILE -->
  <line x1="120" y1="250" x2="90" y2="490" stroke="#7a4a00" stroke-width="1.5" stroke-dasharray="4,3"/>
  <!-- HUB_CUSTOMER → SAT_CUSTOMER_ADDRESS -->
  <line x1="180" y1="250" x2="215" y2="620" stroke="#7a4a00" stroke-width="1.5" stroke-dasharray="4,3"/>

  <!-- HUB_PRODUCT → SAT_PRODUCT_DETAILS -->
  <line x1="810" y1="205" x2="900" y2="620" stroke="#7a4a00" stroke-width="1.5" stroke-dasharray="4,3"/>

  <!-- LNK_ORDER_PAYMENT → SAT_PAYMENT_DETAILS -->
  <line x1="800" y1="580" x2="1050" y2="650" stroke="#7a4a00" stroke-width="1.5" stroke-dasharray="4,3"/>

  <!-- ═══════════════════════════════════════════════════════════════════ -->
  <!--  HUBS (GREEN)                                                       -->
  <!-- ═══════════════════════════════════════════════════════════════════ -->

  <!-- HUB_CUSTOMER  x=32 -->
  <g transform="translate(32,110)">
    <rect width="200" height="145" rx="6" fill="#0e2e1a" stroke="#1a6b3a" stroke-width="2"/>
    <rect width="200" height="28" rx="6" fill="#1a6b3a"/>
    <rect y="22" width="200" height="6" fill="#1a6b3a"/>
    <text x="100" y="19" text-anchor="middle" font-size="12" font-weight="700" fill="#e8f5e9">HUB_CUSTOMER</text>
    <text x="8" y="50" font-size="10" fill="#81c784">CUSTOMER_HK (PK)</text>
    <text x="160" y="50" text-anchor="end" font-size="9" fill="#4a7a4e">BINARY(16)</text>
    <line x1="0" y1="57" x2="200" y2="57" stroke="#1a6b3a" stroke-width="0.5"/>
    <text x="8" y="72" font-size="10" fill="#a5d6a7">CUSTOMER_NUMBER</text>
    <text x="192" y="72" text-anchor="end" font-size="9" fill="#4a7a4e">VARCHAR(20)</text>
    <text x="8" y="89" font-size="10" fill="#a5d6a7">LOAD_DTS</text>
    <text x="192" y="89" text-anchor="end" font-size="9" fill="#4a7a4e">DATETIME2</text>
    <text x="8" y="106" font-size="10" fill="#a5d6a7">REC_SRC</text>
    <text x="192" y="106" text-anchor="end" font-size="9" fill="#4a7a4e">VARCHAR(50)</text>
    <text x="8" y="128" font-size="9" fill="#2e7d32" font-style="italic">One row per unique customer.</text>
    <text x="8" y="140" font-size="9" fill="#2e7d32" font-style="italic">Inserted once; never updated.</text>
  </g>

  <!-- HUB_ORDER  x=430 -->
  <g transform="translate(420,110)">
    <rect width="180" height="130" rx="6" fill="#0e2e1a" stroke="#1a6b3a" stroke-width="2"/>
    <rect width="180" height="28" rx="6" fill="#1a6b3a"/>
    <rect y="22" width="180" height="6" fill="#1a6b3a"/>
    <text x="90" y="19" text-anchor="middle" font-size="12" font-weight="700" fill="#e8f5e9">HUB_ORDER</text>
    <text x="8" y="50" font-size="10" fill="#81c784">ORDER_HK (PK)</text>
    <text x="172" y="50" text-anchor="end" font-size="9" fill="#4a7a4e">BINARY(16)</text>
    <line x1="0" y1="57" x2="180" y2="57" stroke="#1a6b3a" stroke-width="0.5"/>
    <text x="8" y="72" font-size="10" fill="#a5d6a7">ORDER_NUMBER</text>
    <text x="172" y="72" text-anchor="end" font-size="9" fill="#4a7a4e">VARCHAR(20)</text>
    <text x="8" y="89" font-size="10" fill="#a5d6a7">LOAD_DTS</text>
    <text x="172" y="89" text-anchor="end" font-size="9" fill="#4a7a4e">DATETIME2</text>
    <text x="8" y="106" font-size="10" fill="#a5d6a7">REC_SRC</text>
    <text x="172" y="106" text-anchor="end" font-size="9" fill="#4a7a4e">VARCHAR(50)</text>
  </g>

  <!-- HUB_PRODUCT  x=700 -->
  <g transform="translate(690,110)">
    <rect width="190" height="130" rx="6" fill="#0e2e1a" stroke="#1a6b3a" stroke-width="2"/>
    <rect width="190" height="28" rx="6" fill="#1a6b3a"/>
    <rect y="22" width="190" height="6" fill="#1a6b3a"/>
    <text x="95" y="19" text-anchor="middle" font-size="12" font-weight="700" fill="#e8f5e9">HUB_PRODUCT</text>
    <text x="8" y="50" font-size="10" fill="#81c784">PRODUCT_HK (PK)</text>
    <text x="182" y="50" text-anchor="end" font-size="9" fill="#4a7a4e">BINARY(16)</text>
    <line x1="0" y1="57" x2="190" y2="57" stroke="#1a6b3a" stroke-width="0.5"/>
    <text x="8" y="72" font-size="10" fill="#a5d6a7">PRODUCT_CODE</text>
    <text x="182" y="72" text-anchor="end" font-size="9" fill="#4a7a4e">VARCHAR(30)</text>
    <text x="8" y="89" font-size="10" fill="#a5d6a7">LOAD_DTS</text>
    <text x="182" y="89" text-anchor="end" font-size="9" fill="#4a7a4e">DATETIME2</text>
    <text x="8" y="106" font-size="10" fill="#a5d6a7">REC_SRC</text>
    <text x="182" y="106" text-anchor="end" font-size="9" fill="#4a7a4e">VARCHAR(50)</text>
  </g>

  <!-- HUB_CHANNEL  x=32 y=430 -->
  <g transform="translate(32,430)">
    <rect width="180" height="130" rx="6" fill="#0e2e1a" stroke="#1a6b3a" stroke-width="2"/>
    <rect width="180" height="28" rx="6" fill="#1a6b3a"/>
    <rect y="22" width="180" height="6" fill="#1a6b3a"/>
    <text x="90" y="19" text-anchor="middle" font-size="12" font-weight="700" fill="#e8f5e9">HUB_CHANNEL</text>
    <text x="8" y="50" font-size="10" fill="#81c784">CHANNEL_HK (PK)</text>
    <text x="172" y="50" text-anchor="end" font-size="9" fill="#4a7a4e">BINARY(16)</text>
    <line x1="0" y1="57" x2="180" y2="57" stroke="#1a6b3a" stroke-width="0.5"/>
    <text x="8" y="72" font-size="10" fill="#a5d6a7">CHANNEL_CODE</text>
    <text x="172" y="72" text-anchor="end" font-size="9" fill="#4a7a4e">VARCHAR(20)</text>
    <text x="8" y="89" font-size="10" fill="#a5d6a7">LOAD_DTS</text>
    <text x="172" y="89" text-anchor="end" font-size="9" fill="#4a7a4e">DATETIME2</text>
    <text x="8" y="106" font-size="10" fill="#a5d6a7">REC_SRC</text>
    <text x="172" y="106" text-anchor="end" font-size="9" fill="#4a7a4e">VARCHAR(50)</text>
  </g>

  <!-- HUB_PAYMENT_METHOD  x=970 -->
  <g transform="translate(970,110)">
    <rect width="210" height="130" rx="6" fill="#0e2e1a" stroke="#1a6b3a" stroke-width="2"/>
    <rect width="210" height="28" rx="6" fill="#1a6b3a"/>
    <rect y="22" width="210" height="6" fill="#1a6b3a"/>
    <text x="105" y="19" text-anchor="middle" font-size="12" font-weight="700" fill="#e8f5e9">HUB_PAYMENT_METHOD</text>
    <text x="8" y="50" font-size="10" fill="#81c784">PAYMENT_METHOD_HK (PK)</text>
    <text x="202" y="50" text-anchor="end" font-size="9" fill="#4a7a4e">BINARY(16)</text>
    <line x1="0" y1="57" x2="210" y2="57" stroke="#1a6b3a" stroke-width="0.5"/>
    <text x="8" y="72" font-size="10" fill="#a5d6a7">PAYMENT_CODE</text>
    <text x="202" y="72" text-anchor="end" font-size="9" fill="#4a7a4e">VARCHAR(20)</text>
    <text x="8" y="89" font-size="10" fill="#a5d6a7">LOAD_DTS</text>
    <text x="202" y="89" text-anchor="end" font-size="9" fill="#4a7a4e">DATETIME2</text>
    <text x="8" y="106" font-size="10" fill="#a5d6a7">REC_SRC</text>
    <text x="202" y="106" text-anchor="end" font-size="9" fill="#4a7a4e">VARCHAR(50)</text>
  </g>

  <!-- HUB_SUPPLIER  x=1080 y=110 -->
  <g transform="translate(1085,110)">
    <rect width="180" height="130" rx="6" fill="#0e2e1a" stroke="#1a6b3a" stroke-width="2"/>
    <rect width="180" height="28" rx="6" fill="#1a6b3a"/>
    <rect y="22" width="180" height="6" fill="#1a6b3a"/>
    <text x="90" y="19" text-anchor="middle" font-size="12" font-weight="700" fill="#e8f5e9">HUB_SUPPLIER</text>
    <text x="8" y="50" font-size="10" fill="#81c784">SUPPLIER_HK (PK)</text>
    <text x="172" y="50" text-anchor="end" font-size="9" fill="#4a7a4e">BINARY(16)</text>
    <line x1="0" y1="57" x2="180" y2="57" stroke="#1a6b3a" stroke-width="0.5"/>
    <text x="8" y="72" font-size="10" fill="#a5d6a7">SUPPLIER_CODE</text>
    <text x="172" y="72" text-anchor="end" font-size="9" fill="#4a7a4e">VARCHAR(20)</text>
    <text x="8" y="89" font-size="10" fill="#a5d6a7">LOAD_DTS</text>
    <text x="172" y="89" text-anchor="end" font-size="9" fill="#4a7a4e">DATETIME2</text>
    <text x="8" y="106" font-size="10" fill="#a5d6a7">REC_SRC</text>
    <text x="172" y="106" text-anchor="end" font-size="9" fill="#4a7a4e">VARCHAR(50)</text>
  </g>

  <!-- ═══════════════════════════════════════════════════════════════════ -->
  <!--  LINKS (PURPLE)                                                     -->
  <!-- ═══════════════════════════════════════════════════════════════════ -->

  <!-- LNK_ORDER_ITEM  x=490 y=295 -->
  <g transform="translate(490,295)">
    <rect width="230" height="160" rx="6" fill="#1a0a2e" stroke="#5a2d82" stroke-width="2"/>
    <rect width="230" height="28" rx="6" fill="#5a2d82"/>
    <rect y="22" width="230" height="6" fill="#5a2d82"/>
    <text x="115" y="19" text-anchor="middle" font-size="12" font-weight="700" fill="#ede7f6">LNK_ORDER_ITEM</text>
    <text x="8" y="50" font-size="10" fill="#ce93d8">ORDER_ITEM_HK (PK)</text>
    <text x="222" y="50" text-anchor="end" font-size="9" fill="#7b4fa0">BINARY(16)</text>
    <line x1="0" y1="57" x2="230" y2="57" stroke="#5a2d82" stroke-width="0.5"/>
    <text x="8" y="72" font-size="10" fill="#e1bee7">ORDER_HK (FK)</text>
    <text x="222" y="72" text-anchor="end" font-size="9" fill="#7b4fa0">BINARY(16)</text>
    <text x="8" y="89" font-size="10" fill="#e1bee7">PRODUCT_HK (FK)</text>
    <text x="222" y="89" text-anchor="end" font-size="9" fill="#7b4fa0">BINARY(16)</text>
    <text x="8" y="106" font-size="10" fill="#e1bee7">CUSTOMER_HK (FK)</text>
    <text x="222" y="106" text-anchor="end" font-size="9" fill="#7b4fa0">BINARY(16)</text>
    <text x="8" y="123" font-size="10" fill="#e1bee7">LOAD_DTS</text>
    <text x="222" y="123" text-anchor="end" font-size="9" fill="#7b4fa0">DATETIME2</text>
    <text x="8" y="140" font-size="10" fill="#e1bee7">REC_SRC</text>
    <text x="222" y="140" text-anchor="end" font-size="9" fill="#7b4fa0">VARCHAR(50)</text>
    <text x="8" y="156" font-size="9" fill="#4a2060" font-style="italic">Keys only — no amounts or dates here</text>
  </g>

  <!-- LNK_ORDER_CHANNEL  x=270 y=495 -->
  <g transform="translate(262,490)">
    <rect width="220" height="143" rx="6" fill="#1a0a2e" stroke="#5a2d82" stroke-width="2"/>
    <rect width="220" height="28" rx="6" fill="#5a2d82"/>
    <rect y="22" width="220" height="6" fill="#5a2d82"/>
    <text x="110" y="19" text-anchor="middle" font-size="12" font-weight="700" fill="#ede7f6">LNK_ORDER_CHANNEL</text>
    <text x="8" y="50" font-size="10" fill="#ce93d8">ORDER_CHANNEL_HK (PK)</text>
    <text x="212" y="50" text-anchor="end" font-size="9" fill="#7b4fa0">BINARY(16)</text>
    <line x1="0" y1="57" x2="220" y2="57" stroke="#5a2d82" stroke-width="0.5"/>
    <text x="8" y="72" font-size="10" fill="#e1bee7">ORDER_HK (FK)</text>
    <text x="212" y="72" text-anchor="end" font-size="9" fill="#7b4fa0">BINARY(16)</text>
    <text x="8" y="89" font-size="10" fill="#e1bee7">CHANNEL_HK (FK)</text>
    <text x="212" y="89" text-anchor="end" font-size="9" fill="#7b4fa0">BINARY(16)</text>
    <text x="8" y="106" font-size="10" fill="#e1bee7">LOAD_DTS</text>
    <text x="212" y="106" text-anchor="end" font-size="9" fill="#7b4fa0">DATETIME2</text>
    <text x="8" y="123" font-size="10" fill="#e1bee7">REC_SRC</text>
    <text x="212" y="123" text-anchor="end" font-size="9" fill="#7b4fa0">VARCHAR(50)</text>
  </g>

  <!-- LNK_ORDER_PAYMENT  x=700 y=490 -->
  <g transform="translate(700,490)">
    <rect width="220" height="143" rx="6" fill="#1a0a2e" stroke="#5a2d82" stroke-width="2"/>
    <rect width="220" height="28" rx="6" fill="#5a2d82"/>
    <rect y="22" width="220" height="6" fill="#5a2d82"/>
    <text x="110" y="19" text-anchor="middle" font-size="12" font-weight="700" fill="#ede7f6">LNK_ORDER_PAYMENT</text>
    <text x="8" y="50" font-size="10" fill="#ce93d8">ORDER_PAYMENT_HK (PK)</text>
    <text x="212" y="50" text-anchor="end" font-size="9" fill="#7b4fa0">BINARY(16)</text>
    <line x1="0" y1="57" x2="220" y2="57" stroke="#5a2d82" stroke-width="0.5"/>
    <text x="8" y="72" font-size="10" fill="#e1bee7">ORDER_HK (FK)</text>
    <text x="212" y="72" text-anchor="end" font-size="9" fill="#7b4fa0">BINARY(16)</text>
    <text x="8" y="89" font-size="10" fill="#e1bee7">PAYMENT_METHOD_HK (FK)</text>
    <text x="212" y="89" text-anchor="end" font-size="9" fill="#7b4fa0">BINARY(16)</text>
    <text x="8" y="106" font-size="10" fill="#e1bee7">LOAD_DTS</text>
    <text x="212" y="106" text-anchor="end" font-size="9" fill="#7b4fa0">DATETIME2</text>
    <text x="8" y="123" font-size="10" fill="#e1bee7">REC_SRC</text>
    <text x="212" y="123" text-anchor="end" font-size="9" fill="#7b4fa0">VARCHAR(50)</text>
  </g>

  <!-- LNK_PRODUCT_SUPPLY  x=930 y=490 -->
  <g transform="translate(942,490)">
    <rect width="220" height="143" rx="6" fill="#1a0a2e" stroke="#5a2d82" stroke-width="2"/>
    <rect width="220" height="28" rx="6" fill="#5a2d82"/>
    <rect y="22" width="220" height="6" fill="#5a2d82"/>
    <text x="110" y="19" text-anchor="middle" font-size="12" font-weight="700" fill="#ede7f6">LNK_PRODUCT_SUPPLY</text>
    <text x="8" y="50" font-size="10" fill="#ce93d8">PRODUCT_SUPPLY_HK (PK)</text>
    <text x="212" y="50" text-anchor="end" font-size="9" fill="#7b4fa0">BINARY(16)</text>
    <line x1="0" y1="57" x2="220" y2="57" stroke="#5a2d82" stroke-width="0.5"/>
    <text x="8" y="72" font-size="10" fill="#e1bee7">PRODUCT_HK (FK)</text>
    <text x="212" y="72" text-anchor="end" font-size="9" fill="#7b4fa0">BINARY(16)</text>
    <text x="8" y="89" font-size="10" fill="#e1bee7">SUPPLIER_HK (FK)</text>
    <text x="212" y="89" text-anchor="end" font-size="9" fill="#7b4fa0">BINARY(16)</text>
    <text x="8" y="106" font-size="10" fill="#e1bee7">LOAD_DTS</text>
    <text x="212" y="106" text-anchor="end" font-size="9" fill="#7b4fa0">DATETIME2</text>
    <text x="8" y="123" font-size="10" fill="#e1bee7">REC_SRC</text>
    <text x="212" y="123" text-anchor="end" font-size="9" fill="#7b4fa0">VARCHAR(50)</text>
  </g>

  <!-- ═══════════════════════════════════════════════════════════════════ -->
  <!--  SATELLITES (AMBER)                                                 -->
  <!-- ═══════════════════════════════════════════════════════════════════ -->

  <!-- SAT_CUSTOMER_PROFILE  x=32 y=490 -->
  <g transform="translate(28,490)">
    <rect width="200" height="175" rx="6" fill="#1e1200" stroke="#7a4a00" stroke-width="2"/>
    <rect width="200" height="28" rx="6" fill="#7a4a00"/>
    <rect y="22" width="200" height="6" fill="#7a4a00"/>
    <text x="100" y="19" text-anchor="middle" font-size="11" font-weight="700" fill="#fff8e1">SAT_CUSTOMER_PROFILE</text>
    <text x="8" y="50" font-size="10" fill="#ffcc02">CUSTOMER_HK (PK,FK)</text>
    <text x="192" y="50" text-anchor="end" font-size="9" fill="#7a5c00">BINARY(16)</text>
    <text x="8" y="67" font-size="10" fill="#ffcc02">LOAD_DTS (PK)</text>
    <text x="192" y="67" text-anchor="end" font-size="9" fill="#7a5c00">DATETIME2</text>
    <line x1="0" y1="74" x2="200" y2="74" stroke="#7a4a00" stroke-width="0.5"/>
    <text x="8" y="89" font-size="10" fill="#ffe082">HASH_DIFF</text>
    <text x="192" y="89" text-anchor="end" font-size="9" fill="#7a5c00">BINARY(16)</text>
    <text x="8" y="106" font-size="10" fill="#ffe082">REC_SRC</text>
    <text x="192" y="106" text-anchor="end" font-size="9" fill="#7a5c00">VARCHAR(50)</text>
    <text x="8" y="123" font-size="10" fill="#fff8e1">FULL_NAME</text>
    <text x="192" y="123" text-anchor="end" font-size="9" fill="#7a5c00">NVARCHAR(100)</text>
    <text x="8" y="140" font-size="10" fill="#fff8e1">EMAIL_ADDRESS</text>
    <text x="192" y="140" text-anchor="end" font-size="9" fill="#7a5c00">NVARCHAR(200)</text>
    <text x="8" y="157" font-size="10" fill="#fff8e1">LOYALTY_TIER</text>
    <text x="192" y="157" text-anchor="end" font-size="9" fill="#7a5c00">VARCHAR(20)</text>
    <text x="8" y="172" font-size="9" fill="#5a3a00" font-style="italic">New row on every change</text>
  </g>

  <!-- SAT_CUSTOMER_ADDRESS  x=32 y=690 -->
  <g transform="translate(28,680)">
    <rect width="200" height="175" rx="6" fill="#1e1200" stroke="#7a4a00" stroke-width="2"/>
    <rect width="200" height="28" rx="6" fill="#7a4a00"/>
    <rect y="22" width="200" height="6" fill="#7a4a00"/>
    <text x="100" y="19" text-anchor="middle" font-size="11" font-weight="700" fill="#fff8e1">SAT_CUSTOMER_ADDRESS</text>
    <text x="8" y="50" font-size="10" fill="#ffcc02">CUSTOMER_HK (PK,FK)</text>
    <text x="192" y="50" text-anchor="end" font-size="9" fill="#7a5c00">BINARY(16)</text>
    <text x="8" y="67" font-size="10" fill="#ffcc02">LOAD_DTS (PK)</text>
    <text x="192" y="67" text-anchor="end" font-size="9" fill="#7a5c00">DATETIME2</text>
    <line x1="0" y1="74" x2="200" y2="74" stroke="#7a4a00" stroke-width="0.5"/>
    <text x="8" y="89" font-size="10" fill="#ffe082">HASH_DIFF</text>
    <text x="192" y="89" text-anchor="end" font-size="9" fill="#7a5c00">BINARY(16)</text>
    <text x="8" y="106" font-size="10" fill="#ffe082">REC_SRC</text>
    <text x="192" y="106" text-anchor="end" font-size="9" fill="#7a5c00">VARCHAR(50)</text>
    <text x="8" y="123" font-size="10" fill="#fff8e1">STREET_ADDRESS</text>
    <text x="192" y="123" text-anchor="end" font-size="9" fill="#7a5c00">NVARCHAR(200)</text>
    <text x="8" y="140" font-size="10" fill="#fff8e1">SUBURB</text>
    <text x="192" y="140" text-anchor="end" font-size="9" fill="#7a5c00">NVARCHAR(100)</text>
    <text x="8" y="157" font-size="10" fill="#fff8e1">STATE_CODE / POSTCODE</text>
    <text x="192" y="157" text-anchor="end" font-size="9" fill="#7a5c00">CHAR</text>
  </g>

  <!-- SAT_ORDER_ITEM_DETAILS  x=440 y=620 -->
  <g transform="translate(430,618)">
    <rect width="210" height="175" rx="6" fill="#1e1200" stroke="#7a4a00" stroke-width="2"/>
    <rect width="210" height="28" rx="6" fill="#7a4a00"/>
    <rect y="22" width="210" height="6" fill="#7a4a00"/>
    <text x="105" y="19" text-anchor="middle" font-size="11" font-weight="700" fill="#fff8e1">SAT_ORDER_ITEM_DETAILS</text>
    <text x="8" y="50" font-size="10" fill="#ffcc02">ORDER_ITEM_HK (PK,FK)</text>
    <text x="202" y="50" text-anchor="end" font-size="9" fill="#7a5c00">BINARY(16)</text>
    <text x="8" y="67" font-size="10" fill="#ffcc02">LOAD_DTS (PK)</text>
    <text x="202" y="67" text-anchor="end" font-size="9" fill="#7a5c00">DATETIME2</text>
    <line x1="0" y1="74" x2="210" y2="74" stroke="#7a4a00" stroke-width="0.5"/>
    <text x="8" y="89" font-size="10" fill="#ffe082">HASH_DIFF</text>
    <text x="202" y="89" text-anchor="end" font-size="9" fill="#7a5c00">BINARY(16)</text>
    <text x="8" y="106" font-size="10" fill="#ffe082">REC_SRC</text>
    <text x="202" y="106" text-anchor="end" font-size="9" fill="#7a5c00">VARCHAR(50)</text>
    <text x="8" y="123" font-size="10" fill="#fff8e1">QUANTITY</text>
    <text x="202" y="123" text-anchor="end" font-size="9" fill="#7a5c00">INT</text>
    <text x="8" y="140" font-size="10" fill="#fff8e1">UNIT_PRICE_SOLD</text>
    <text x="202" y="140" text-anchor="end" font-size="9" fill="#7a5c00">DECIMAL(10,2)</text>
    <text x="8" y="157" font-size="10" fill="#fff8e1">LINE_TOTAL</text>
    <text x="202" y="157" text-anchor="end" font-size="9" fill="#7a5c00">DECIMAL(12,2)</text>
  </g>

  <!-- SAT_ORDER_STATUS  x=660 y=620 -->
  <g transform="translate(656,618)">
    <rect width="210" height="175" rx="6" fill="#1e1200" stroke="#7a4a00" stroke-width="2"/>
    <rect width="210" height="28" rx="6" fill="#7a4a00"/>
    <rect y="22" width="210" height="6" fill="#7a4a00"/>
    <text x="105" y="19" text-anchor="middle" font-size="11" font-weight="700" fill="#fff8e1">SAT_ORDER_STATUS</text>
    <text x="8" y="50" font-size="10" fill="#ffcc02">ORDER_ITEM_HK (PK,FK)</text>
    <text x="202" y="50" text-anchor="end" font-size="9" fill="#7a5c00">BINARY(16)</text>
    <text x="8" y="67" font-size="10" fill="#ffcc02">LOAD_DTS (PK)</text>
    <text x="202" y="67" text-anchor="end" font-size="9" fill="#7a5c00">DATETIME2</text>
    <line x1="0" y1="74" x2="210" y2="74" stroke="#7a4a00" stroke-width="0.5"/>
    <text x="8" y="89" font-size="10" fill="#ffe082">HASH_DIFF</text>
    <text x="202" y="89" text-anchor="end" font-size="9" fill="#7a5c00">BINARY(16)</text>
    <text x="8" y="106" font-size="10" fill="#ffe082">REC_SRC</text>
    <text x="202" y="106" text-anchor="end" font-size="9" fill="#7a5c00">VARCHAR(50)</text>
    <text x="8" y="123" font-size="10" fill="#fff8e1">ORDER_STATUS</text>
    <text x="202" y="123" text-anchor="end" font-size="9" fill="#7a5c00">VARCHAR(30)</text>
    <text x="8" y="140" font-size="10" fill="#fff8e1">DELIVERY_STATUS</text>
    <text x="202" y="140" text-anchor="end" font-size="9" fill="#7a5c00">VARCHAR(30)</text>
    <text x="8" y="157" font-size="10" fill="#fff8e1">TRACKING_NUMBER</text>
    <text x="202" y="157" text-anchor="end" font-size="9" fill="#7a5c00">VARCHAR(50)</text>
  </g>

  <!-- SAT_PRODUCT_DETAILS  x=890 y=618 -->
  <g transform="translate(882,618)">
    <rect width="200" height="175" rx="6" fill="#1e1200" stroke="#7a4a00" stroke-width="2"/>
    <rect width="200" height="28" rx="6" fill="#7a4a00"/>
    <rect y="22" width="200" height="6" fill="#7a4a00"/>
    <text x="100" y="19" text-anchor="middle" font-size="11" font-weight="700" fill="#fff8e1">SAT_PRODUCT_DETAILS</text>
    <text x="8" y="50" font-size="10" fill="#ffcc02">PRODUCT_HK (PK,FK)</text>
    <text x="192" y="50" text-anchor="end" font-size="9" fill="#7a5c00">BINARY(16)</text>
    <text x="8" y="67" font-size="10" fill="#ffcc02">LOAD_DTS (PK)</text>
    <text x="192" y="67" text-anchor="end" font-size="9" fill="#7a5c00">DATETIME2</text>
    <line x1="0" y1="74" x2="200" y2="74" stroke="#7a4a00" stroke-width="0.5"/>
    <text x="8" y="89" font-size="10" fill="#ffe082">HASH_DIFF</text>
    <text x="192" y="89" text-anchor="end" font-size="9" fill="#7a5c00">BINARY(16)</text>
    <text x="8" y="106" font-size="10" fill="#ffe082">REC_SRC</text>
    <text x="192" y="106" text-anchor="end" font-size="9" fill="#7a5c00">VARCHAR(50)</text>
    <text x="8" y="123" font-size="10" fill="#fff8e1">PRODUCT_NAME</text>
    <text x="192" y="123" text-anchor="end" font-size="9" fill="#7a5c00">NVARCHAR(200)</text>
    <text x="8" y="140" font-size="10" fill="#fff8e1">CATEGORY / BRAND</text>
    <text x="192" y="140" text-anchor="end" font-size="9" fill="#7a5c00">NVARCHAR</text>
    <text x="8" y="157" font-size="10" fill="#fff8e1">UNIT_PRICE</text>
    <text x="192" y="157" text-anchor="end" font-size="9" fill="#7a5c00">DECIMAL(10,2)</text>
  </g>

  <!-- SAT_PAYMENT_DETAILS  x=1080 y=650 -->
  <g transform="translate(1075,648)">
    <rect width="192" height="175" rx="6" fill="#1e1200" stroke="#7a4a00" stroke-width="2"/>
    <rect width="192" height="28" rx="6" fill="#7a4a00"/>
    <rect y="22" width="192" height="6" fill="#7a4a00"/>
    <text x="96" y="19" text-anchor="middle" font-size="11" font-weight="700" fill="#fff8e1">SAT_PAYMENT_DETAILS</text>
    <text x="8" y="50" font-size="10" fill="#ffcc02">ORDER_PAYMENT_HK (PK,FK)</text>
    <text x="184" y="50" text-anchor="end" font-size="9" fill="#7a5c00">BINARY(16)</text>
    <text x="8" y="67" font-size="10" fill="#ffcc02">LOAD_DTS (PK)</text>
    <text x="184" y="67" text-anchor="end" font-size="9" fill="#7a5c00">DATETIME2</text>
    <line x1="0" y1="74" x2="192" y2="74" stroke="#7a4a00" stroke-width="0.5"/>
    <text x="8" y="89" font-size="10" fill="#ffe082">HASH_DIFF</text>
    <text x="184" y="89" text-anchor="end" font-size="9" fill="#7a5c00">BINARY(16)</text>
    <text x="8" y="106" font-size="10" fill="#ffe082">REC_SRC</text>
    <text x="184" y="106" text-anchor="end" font-size="9" fill="#7a5c00">VARCHAR(50)</text>
    <text x="8" y="123" font-size="10" fill="#fff8e1">PAYMENT_AMOUNT</text>
    <text x="184" y="123" text-anchor="end" font-size="9" fill="#7a5c00">DECIMAL(12,2)</text>
    <text x="8" y="140" font-size="10" fill="#fff8e1">PAYMENT_STATUS</text>
    <text x="184" y="140" text-anchor="end" font-size="9" fill="#7a5c00">VARCHAR(20)</text>
    <text x="8" y="157" font-size="10" fill="#fff8e1">GATEWAY_REF</text>
    <text x="184" y="157" text-anchor="end" font-size="9" fill="#7a5c00">VARCHAR(100)</text>
  </g>

  <!-- ═══════════════════════════════════════════════════════════════════ -->
  <!--  FOOTER RULE BOX                                                    -->
  <!-- ═══════════════════════════════════════════════════════════════════ -->
  <rect x="32" y="862" width="1216" height="28" rx="4" fill="#0a0f1a" stroke="#2a3a50" stroke-width="1"/>
  <text x="640" y="880" text-anchor="middle" font-size="11" fill="#5a7a9a">
    INSERT-ONLY · No physical updates or deletes · LOAD_DTS = when vault received it · REC_SRC = which system · HASH_DIFF = change detection · No FK constraints on reference tables
  </text>

</svg>
